:SAMPLES-PER-SECOND 30
:FRAME-RANGE 1-1770
:FULLY-SPECIFIED
:DEGREES
830
root  20.5551 38.7028 62.1175 -173.933 70.9255 176.015
RightUpLeg  -18.6837 6.76557 -9.33565
RightLeg  21.2304 1.41817 0.39353
RightFoot  -12.9678 0.0496114 9.69005
RightToes  -1.33073e-015 0 -3.6325e-017
Spine  -1.02782 -0.369894 1.80356
Spine1  5.41097 -0.589521 0.760265
HEad  -6.45568 54.8139 -20.0453
LeftShoulder1  1.58748 -2.8019 -19.7706
LeftArm  15.4541 -8.33673 -56.0638
LeftForeArm  28.9952 -15.856 -8.04533
LeftHand  -0.0558335 4.30787 3.85074
RightShoulder  1.40303 1.36326 23.8798
RightArm  -18.2143 -1.16374 39.7014
RightForeArm  54.328 10.1875 7.66733
RightHand  -0.0793514 -4.94574 -17.6641
LeftUpLeg  -20.1407 -2.2357 12.0689
LeftLeg  33.7936 7.58021 5.78515
LeftFoot  -11.5946 0.05914 -4.67096
LeftToes  1.09107e-011 -1.16422e-010 2.98337e-011
831
root  20.873 38.8657 62.481 -174.224 69.7786 175.725
RightUpLeg  -17.241 5.53361 -8.51293
RightLeg  19.5714 1.50107 0.380023
RightFoot  -12.6759 0.0179543 8.92749
RightToes  -1.33073e-015 0 -3.6325e-017
Spine  -1.29727 -0.124648 3.06618
Spine1  5.66203 -0.301489 0.385008
HEad  -5.01436 54.4464 -19.4778
LeftShoulder1  1.61302 -2.77408 -20.3487
LeftArm  22.7023 -9.42651 -58.3179
LeftForeArm  25.2042 -22.9798 -3.79911
LeftHand  -0.0585704 4.45145 4.79992
RightShoulder  1.48041 1.81745 22.6738
RightArm  -21.8662 1.44331 37.6319
RightForeArm  57.8989 7.60066 6.91445
RightHand  -0.162297 -4.37823 -17.374
LeftUpLeg  -22.0624 -2.53391 9.32274
LeftLeg  33.9529 8.46956 6.44631
LeftFoot  -11.7062 0.0540264 -5.05247
LeftToes  1.09107e-011 -1.16422e-010 2.98337e-011
832
root  21.21 38.9657 62.8031 -174.321 68.733 175.815
RightUpLeg  -15.8949 2.89792 -7.47926
RightLeg  18.5065 3.07398 0.808282
RightFoot  -12.694 0.00657296 7.85507
RightToes  -1.33073e-015 0 -3.6325e-017
Spine  -1.64002 0.0402048 4.03487
Spine1  5.99972 -0.126876 0.113133
HEad  -3.72496 54.4234 -18.7349
LeftShoulder1  1.59203 -2.58864 -20.86
LeftArm  19.1147 -10.2293 -59.7096
LeftForeArm  32.3744 -28.4271 -4.38674
LeftHand  -0.0615711 4.52399 5.66652
RightShoulder  1.53514 2.12697 22.0041
RightArm  -22.0263 4.64358 35.2488
RightForeArm  58.8602 4.88079 6.52105
RightHand  -0.0237474 -5.31671 -17.0653
LeftUpLeg  -23.4976 -2.60936 6.83995
LeftLeg  33.381 9.43992 6.98799
LeftFoot  -11.2951 0.0697715 -5.23533
LeftToes  1.09107e-011 -1.16422e-010 2.98337e-011
833
root  21.565 39.0317 63.0893 -174.123 68.1774 176.258
RightUpLeg  -14.7153 0.678047 -6.36928
RightLeg  17.678 4.7455 1.10191
RightFoot  -12.7988 0.00232299 7.01104
RightToes  -1.33073e-015 0 -3.6325e-017
Spine  -1.89323 0.30469 4.71479
Spine1  6.14129 0.0796168 0.177448
HEad  -2.82674 54.7465 -18.228
LeftShoulder1  1.5285 -2.35487 -20.8516
LeftArm  17.2343 -10.5272 -61.1203
LeftForeArm  35.6728 -32.3115 -5.1032
LeftHand  -0.0744726 4.37456 6.47035
RightShoulder  1.59203 2.39302 21.6706
RightArm  -22.5232 8.12064 33.2474
RightForeArm  60.6923 1.59237 5.88338
RightHand  0.0306247 -5.69765 -16.8207
LeftUpLeg  -24.5823 -2.01532 4.86508
LeftLeg  32.0975 9.62643 6.79838
LeftFoot  -10.8827 0.0874455 -5.56073
LeftToes  1.09107e-011 -1.16422e-010 2.98337e-011
834
root  21.9457 39.0926 63.3493 -174.411 67.7879 176.245
RightUpLeg  -13.5301 -1.00691 -5.56718
RightLeg  16.9722 5.99869 1.29173
RightFoot  -12.9572 0.000705686 6.28391
RightToes  -1.33073e-015 0 -3.6325e-017
Spine  -2.32369 0.546991 4.8976
Spine1  6.52621 0.250316 0.329088
HEad  -2.10942 55.1484 -17.7476
LeftShoulder1  1.49036 -2.28 -20.5079
LeftArm  16.906 -10.5679 -62.041
LeftForeArm  36.1251 -34.786 -5.68511
LeftHand  -0.0867312 4.24724 7.11079
RightShoulder  1.70589 2.79978 21.6886
RightArm  -23.5841 11.3654 31.6834
RightForeArm  62.1499 -1.37921 5.01986
RightHand  0.0787248 -6.04798 -16.5283
LeftUpLeg  -25.4032 -1.95381 3.35215
LeftLeg  30.3069 9.4126 6.23937
LeftFoot  -10.2145 0.117478 -5.72206
LeftToes  1.09107e-011 -1.16422e-010 2.98337e-011
835
root  22.3558 39.132 63.5621 -174.968 67.3844 176.124
RightUpLeg  -12.1933 -1.77215 -4.95274
RightLeg  16.4472 6.35027 1.24721
RightFoot  -13.2859 0.00686909 5.71432
RightToes  -1.33073e-015 0 -3.6325e-017
Spine  -2.7062 0.725959 5.1029
Spine1  6.95315 0.43174 0.186147
HEad  -1.08785 55.2949 -16.6269
LeftShoulder1  1.43192 -2.13746 -20.1054
LeftArm  17.9254 -10.6558 -62.3733
LeftForeArm  36.1005 -35.8361 -5.95512
LeftHand  -0.0809596 4.3321 6.99532
RightShoulder  1.75626 2.98908 21.6516
RightArm  -25.519 13.7922 31.533
RightForeArm  62.9958 -3.54686 3.70988
RightHand  0.115712 -6.29909 -16.7163
LeftUpLeg  -26.0246 -2.61435 2.45671
LeftLeg  28.356 9.09897 5.62269
LeftFoot  -9.38258 0.148026 -5.36854
LeftToes  1.09107e-011 -1.16422e-010 2.98337e-011
836
root  22.7939 39.1948 63.7423 -176.101 67.1834 175.466
RightUpLeg  -10.6379 -2.48276 -4.66975
RightLeg  15.6835 6.80997 1.28573
RightFoot  -13.4972 0.00447794 5.10229
RightToes  -1.33073e-015 0 -3.6325e-017
Spine  -2.96717 0.913664 5.05485
Spine1  7.29765 0.720326 -0.246473
HEad  -0.159785 55.5127 -15.7302
LeftShoulder1  1.38471 -2.01511 -19.8019
LeftArm  19.4632 -10.5317 -62.3361
LeftForeArm  36.3351 -35.2729 -5.79694
LeftHand  -0.0794141 4.3033 6.62303
RightShoulder  1.76628 3.03968 21.5841
RightArm  -27.739 15.1732 32.5662
RightForeArm  62.5881 -4.43056 2.3192
RightHand  0.124513 -6.33273 -17.1432
LeftUpLeg  -26.4939 -3.67335 1.89107
LeftLeg  26.3256 9.26536 5.2877
LeftFoot  -7.89194 0.187667 -4.66
LeftToes  1.09107e-011 -1.16422e-010 2.98337e-011
837
root  23.2576 39.216 63.8599 -177.121 67.1169 174.982
RightUpLeg  -9.14654 -2.54812 -4.35464
RightLeg  15.2842 6.82182 1.0921
RightFoot  -13.9428 0.0107086 4.63427
RightToes  -1.33073e-015 0 -3.6325e-017
Spine  -3.11175 1.12599 5.15722
Spine1  7.44133 1.02531 -0.653684
HEad  1.03979 55.7196 -14.4092
LeftShoulder1  1.32269 -1.7908 -19.7239
LeftArm  21.675 -10.148 -61.9813
LeftForeArm  35.6251 -33.3356 -5.35283
LeftHand  -0.0689145 4.46415 6.33297
RightShoulder  1.81146 3.13031 21.9185
RightArm  -29.2807 16.1555 33.7347
RightForeArm  60.8364 -4.82687 1.35451
RightHand  0.0809502 -6.01754 -17.5149
LeftUpLeg  -26.7487 -4.60091 1.83438
LeftLeg  23.8207 9.20349 4.74887
LeftFoot  -6.61378 0.184615 -3.51055
LeftToes  1.09107e-011 -1.16422e-010 2.98337e-011
838
root  23.7442 39.2322 63.9299 -178.307 66.8362 174.311
RightUpLeg  -7.56989 -2.57497 -4.18491
RightLeg  14.8751 6.52441 0.847632
RightFoot  -14.4188 0.0172618 4.28041
RightToes  -1.33073e-015 0 -3.6325e-017
Spine  -3.39142 1.24362 5.14602
Spine1  7.79156 1.2583 -1.13751
HEad  1.98505 55.787 -13.2947
LeftShoulder1  1.25791 -1.51889 -19.8514
LeftArm  24.5338 -9.66857 -61.5623
LeftForeArm  33.4554 -30.1434 -4.71617
LeftHand  -0.0569401 4.69042 6.20344
RightShoulder  1.86281 3.21686 22.3629
RightArm  -30.2364 16.7329 35.3316
RightForeArm  58.7865 -5.02757 0.701755
RightHand  -0.00284998 -5.44965 -18.1336
LeftUpLeg  -27.0195 -4.77714 1.64175
LeftLeg  21.328 8.72938 4.06601
LeftFoot  -5.57636 0.189515 -3.09878
LeftToes  1.09107e-011 -1.16422e-010 2.98337e-011
839
root  24.2503 39.2098 63.9338 -179.442 66.4817 173.691
RightUpLeg  -6.14054 -2.53543 -4.10132
RightLeg  14.9558 6.07266 0.653952
RightFoot  -15.1474 0.0259309 3.86918
RightToes  -1.33073e-015 0 -3.6325e-017
Spine  -3.55157 1.38798 5.16377
Spine1  7.97674 1.47944 -1.47299
HEad  2.8208 55.757 -12.3798
LeftShoulder1  1.20994 -1.27979 -20.1864
LeftArm  28.5115 -8.92487 -61.154
LeftForeArm  28.9136 -25.9231 -4.02313
LeftHand  -0.0520569 4.79915 6.30852
RightShoulder  1.84873 3.13127 22.5322
RightArm  -30.6957 16.6408 37.8771
RightForeArm  57.7723 -4.82744 0.328198
RightHand  -0.0276843 -5.28892 -18.5027
LeftUpLeg  -27.1464 -4.21273 1.28674
LeftLeg  18.5693 8.34289 3.43574
LeftFoot  -5.30462 0.177932 -2.77021
LeftToes  1.09107e-011 -1.16422e-010 2.98337e-011
840
root  24.7714 39.2044 63.8893 179.252 65.885 172.831
RightUpLeg  -4.54675 -2.67067 -4.24859
RightLeg  14.7975 5.62927 0.518908
RightFoot  -15.781 0.0342422 3.64122
RightToes  -1.33073e-015 0 -3.6325e-017
Spine  -3.69237 1.49616 4.86667
Spine1  8.20759 1.65129 -1.66467
HEad  3.72561 55.4716 -11.5472
LeftShoulder1  1.16908 -1.05506 -20.6377
LeftArm  30.4254 -8.22941 -60.7786
LeftForeArm  25.6427 -20.5431 -5.06593
LeftHand  -0.043662 4.96125 6.19048
RightShoulder  1.84366 3.07429 22.7193
RightArm  -30.2002 16.1299 40.4306
RightForeArm  57.7304 -4.6612 0.495573
RightHand  -0.0426459 -5.19483 -18.6315
LeftUpLeg  -27.268 -3.01763 0.420272
LeftLeg  15.9501 8.63467 3.15918
LeftFoot  -4.70342 0.189608 -2.78237
LeftToes  1.09107e-011 -1.16422e-010 2.98337e-011
841
root  25.3051 39.1571 63.7819 178.156 65.0967 172.194
RightUpLeg  -3.05747 -2.79506 -4.42988
RightLeg  15.0357 4.97476 0.459233
RightFoot  -16.6197 0.0443569 3.40432
RightToes  -1.33073e-015 0 -3.6325e-017
Spine  -3.9395 1.6278 4.69278
Spine1  8.68902 1.8446 -1.86298
HEad  3.88299 54.9927 -11.3193
LeftShoulder1  1.14664 -0.910951 -21.0475
LeftArm  18.581 -8.03106 -59.8909
LeftForeArm  35.2123 -12.2311 -10.6799
LeftHand  -0.0370036 5.09643 6.14976
RightShoulder  1.93188 3.21459 23.5005
RightArm  -28.6732 15.5784 41.9183
RightForeArm  58.7319 -4.70309 1.26784
RightHand  -0.0251121 -5.30541 -18.3479
LeftUpLeg  -27.4408 -1.35442 -0.706989
LeftLeg  13.653 9.71268 3.0752
LeftFoot  -4.20802 0.195553 -2.73178
LeftToes  1.09107e-011 -1.16422e-010 2.98337e-011
